<svg data-v-fde0c5aa="" xmlns="http://www.w3.org/2000/svg" viewBox="0 0 300 300" class="icon"><!----><defs data-v-fde0c5aa=""><!----></defs><rect data-v-fde0c5aa="" fill="#161C60" x="0" y="0" width="300px" height="300px" class="logo-background-square"></rect><!----><defs data-v-fde0c5aa=""><!----></defs><g data-v-fde0c5aa="" id="8ef913c3-1759-4cf0-b1d1-64e8196c3c4c" fill="#25BDD6" stroke="none" transform="matrix(2.4444444444444446,0,0,2.4444444444444446,27.777777777777764,27.77777078416612)"><path d="M81.245 38.696c-2.478-.799-5.2-1.489-8.103-2.069.946-2.795 1.725-5.499 2.27-8.037 1.986-9.242.979-15.316-2.911-17.561-.974-.564-2.095-.849-3.331-.849-1.828 0-3.906.645-6.151 1.85a4.745 4.745 0 0 0-2.922-1.019 4.785 4.785 0 0 0-4.786 4.785c0 .59.121 1.149.317 1.672-1.842 1.677-3.728 3.613-5.628 5.777-7.142-8.135-14.111-13.063-19.17-13.063-1.235 0-2.356.284-3.331.848-3.889 2.246-4.896 8.32-2.911 17.561.545 2.538 1.324 5.242 2.27 8.037-2.903.579-5.624 1.269-8.101 2.068C9.756 41.6 5 45.507 5 50c0 3.084 2.242 5.893 6.558 8.289a4.762 4.762 0 0 0-.153 1.146 4.787 4.787 0 0 0 4.789 4.785c1.783 0 3.32-.987 4.143-2.432a76.79 76.79 0 0 0 6.521 1.583c-.946 2.795-1.725 5.499-2.27 8.036-1.984 9.245-.977 15.317 2.913 17.564.975.561 2.094.847 3.329.847 5.06 0 12.028-4.928 19.171-13.064 7.142 8.137 14.11 13.066 19.169 13.066 1.236 0 2.355-.287 3.329-.847 2.963-1.711 4.249-5.646 3.82-11.504a4.78 4.78 0 0 0 2.821-4.354c0-2.537-1.977-4.59-4.471-4.756a79.622 79.622 0 0 0-1.527-4.986c2.904-.58 5.625-1.27 8.103-2.069C90.244 58.401 95 54.493 95 50s-4.756-8.4-13.755-11.304zM57.406 19.755a4.788 4.788 0 0 0 7.48-3.957c0-.481-.092-.935-.224-1.373 1.738-.904 3.266-1.37 4.509-1.37.735 0 1.354.15 1.895.462 2.589 1.497 3.165 6.907 1.539 14.474-.548 2.553-1.344 5.285-2.317 8.115a115.045 115.045 0 0 0-11.506-1.311c-2.262-3.394-4.58-6.525-6.897-9.335 1.901-2.185 3.754-4.088 5.521-5.705zm3.52 36.554a136.112 136.112 0 0 1-3.75 6.116 132.976 132.976 0 0 1-14.352 0 135.55 135.55 0 0 1-3.75-6.116 133.315 133.315 0 0 1-3.413-6.322 133.786 133.786 0 0 1 7.163-12.412 132.873 132.873 0 0 1 14.352 0 133.786 133.786 0 0 1 7.163 12.412 132.413 132.413 0 0 1-3.413 6.322zm4.988-3.109a108.868 108.868 0 0 1 3.384 7.943c-2.672.436-5.533.789-8.561 1.04.905-1.441 1.8-2.919 2.677-4.438.874-1.515 1.7-3.031 2.5-4.545zM55.19 65.388A108.597 108.597 0 0 1 50 72.312a108.314 108.314 0 0 1-5.19-6.924c1.711.065 3.441.101 5.189.101 1.749 0 3.48-.036 5.191-.101zm-15.926-3.206c-3.028-.251-5.89-.603-8.562-1.04a108.895 108.895 0 0 1 3.385-7.943c.8 1.515 1.626 3.031 2.501 4.545a137.496 137.496 0 0 0 2.676 4.438zm-5.17-15.396a110.24 110.24 0 0 1-3.39-7.929c2.672-.436 5.532-.789 8.559-1.039-.905 1.441-1.8 2.919-2.677 4.438-.87 1.509-1.694 3.02-2.492 4.53zM44.81 34.612A108.597 108.597 0 0 1 50 27.688a108.597 108.597 0 0 1 5.19 6.924 136.813 136.813 0 0 0-5.192-.101c-1.747 0-3.477.037-5.188.101zm18.604 7.643a138.605 138.605 0 0 0-2.677-4.438c3.027.251 5.887.603 8.558 1.039a110.218 110.218 0 0 1-3.389 7.929c-.797-1.509-1.62-3.02-2.492-4.53zM27.397 27.99c-1.626-7.567-1.05-12.977 1.539-14.474.54-.312 1.161-.462 1.894-.462 3.791 0 10.195 4.269 17.287 12.404-2.316 2.81-4.634 5.941-6.896 9.335-4.02.261-7.884.704-11.507 1.311-.972-2.829-1.769-5.561-2.317-8.114zm-6.465 30.961c-.245-2.415-2.26-4.306-4.738-4.306a4.749 4.749 0 0 0-3.104 1.17C9.732 53.974 7.872 51.951 7.872 50c0-3.955 7.603-8.207 19.953-10.627A114.877 114.877 0 0 0 32.441 50a114.76 114.76 0 0 0-4.616 10.627 74.203 74.203 0 0 1-6.893-1.676zm9.898 27.995c-.733 0-1.354-.151-1.894-.463-3.424-1.977-3.305-10.685.774-22.589 3.625.608 7.49 1.051 11.512 1.313 2.262 3.394 4.58 6.525 6.896 9.335-7.094 8.135-13.498 12.404-17.288 12.404zm41.037-17.908a4.77 4.77 0 0 0-2.302 4.076 4.783 4.783 0 0 0 3.868 4.694c.307 4.509-.502 7.597-2.37 8.675-.54.312-1.158.463-1.893.463-3.789 0-10.193-4.269-17.286-12.404 2.317-2.81 4.634-5.942 6.897-9.335a115.08 115.08 0 0 0 11.51-1.313 78.246 78.246 0 0 1 1.576 5.144zm.307-8.411A114.861 114.861 0 0 0 67.559 50a114.861 114.861 0 0 0 4.615-10.627C84.525 41.793 92.129 46.045 92.129 50c0 3.955-7.604 8.207-19.955 10.627z"></path><circle cx="50" cy="50" r="6.703"></circle></g><!----></svg>