<svg data-v-fde0c5aa="" xmlns="http://www.w3.org/2000/svg" viewBox="0 0 300 300" class="iconAboveSlogan"><!----><defs data-v-fde0c5aa=""><!----></defs><rect data-v-fde0c5aa="" fill="#161C60" x="0" y="0" width="300px" height="300px" class="logo-background-square"></rect><defs data-v-fde0c5aa=""><!----></defs><g data-v-fde0c5aa="" id="3a9d7f30-7df6-4782-a9d9-824e58fdd370" fill="#25BDD6" transform="matrix(1.6075183362088614,0,0,1.6075183362088614,20.064300737999595,128.8626483290527)"><path d="M12.18 27.44L11.90 28L7.64 28L7.64 27.57L8.96 26.54L7.88 23.95L3.18 23.95L2.03 26.60L4.49 27.44L4.21 28L-0.04 28L-0.04 27.57L1.27 26.53L5.24 17.44L6.69 16.73L10.78 26.59L12.18 27.44ZM7.63 23.32L5.59 18.41L3.46 23.32L7.63 23.32ZM21.48 27.44L21.20 28L18.54 28L18.54 26.54L16.76 28.03L16.76 28.03Q16.46 28.14 15.99 28.14L15.99 28.14L15.99 28.14Q15.04 28.14 14.48 27.56L14.48 27.56L14.48 27.56Q13.92 26.98 13.92 25.98L13.92 25.98L13.92 22.64L12.67 21.91L12.67 21.48L15.06 20.30L15.60 20.30L15.60 25.28L15.60 25.28Q15.60 26.05 15.83 26.36L15.83 26.36L15.83 26.36Q16.07 26.67 16.69 26.67L16.69 26.67L16.69 26.67Q17.12 26.67 17.54 26.51L17.54 26.51L17.54 26.51Q17.96 26.35 18.54 25.87L18.54 25.87L18.54 22.64L17.29 21.91L17.29 21.48L19.68 20.30L20.22 20.30L20.22 26.95L21.48 27.44ZM27.79 20.44L27.79 20.44Q28.25 20.44 28.60 20.69L28.60 20.69L28.60 20.69Q28.95 20.94 29.15 21.39L29.15 21.39L28.22 22.55L27.69 22.55L27.69 22.55Q27.64 22.20 27.49 22.06L27.49 22.06L27.49 22.06Q27.34 21.91 27.09 21.91L27.09 21.91L27.09 21.91Q26.78 21.91 26.44 22.07L26.44 22.07L26.44 22.07Q26.10 22.23 25.66 22.68L25.66 22.68L25.66 26.85L27.62 27.45L27.34 28.01L22.74 28.01L22.74 27.58L23.98 26.60L23.98 22.64L22.74 21.91L22.74 21.48L25.13 20.30L25.56 22.02L27.02 20.54L27.02 20.54Q27.31 20.43 27.79 20.43L27.79 20.43L27.79 20.44ZM34.43 20.43L34.43 20.43Q35.35 20.43 36.09 20.91L36.09 20.91L36.09 20.91Q36.82 21.39 37.23 22.22L37.23 22.22L37.23 22.22Q37.65 23.04 37.65 24.04L37.65 24.04L37.65 24.04Q37.65 25.12 36.99 26.06L36.99 26.06L36.99 26.06Q36.33 27.01 35.34 27.57L35.34 27.57L35.34 27.57Q34.36 28.14 33.43 28.14L33.43 28.14L33.43 28.14Q32.51 28.14 31.77 27.66L31.77 27.66L31.77 27.66Q31.04 27.17 30.63 26.35L30.63 26.35L30.63 26.35Q30.21 25.52 30.21 24.53L30.21 24.53L30.21 24.53Q30.21 23.45 30.87 22.50L30.87 22.50L30.87 22.50Q31.53 21.56 32.52 20.99L32.52 20.99L32.52 20.99Q33.50 20.43 34.43 20.43L34.43 20.43ZM33.61 21.60L33.61 21.60Q32.03 21.60 32.03 23.86L32.03 23.86L32.03 23.86Q32.03 25.19 32.61 26.07L32.61 26.07L32.61 26.07Q33.18 26.96 34.24 26.96L34.24 26.96L34.24 26.96Q35.83 26.96 35.83 24.70L35.83 24.70L35.83 24.70Q35.83 23.38 35.25 22.49L35.25 22.49L35.25 22.49Q34.68 21.60 33.61 21.60L33.61 21.60ZM44.45 20.44L44.45 20.44Q44.91 20.44 45.26 20.69L45.26 20.69L45.26 20.69Q45.61 20.94 45.81 21.39L45.81 21.39L44.88 22.55L44.35 22.55L44.35 22.55Q44.30 22.20 44.15 22.06L44.15 22.06L44.15 22.06Q44.00 21.91 43.75 21.91L43.75 21.91L43.75 21.91Q43.44 21.91 43.10 22.07L43.10 22.07L43.10 22.07Q42.76 22.23 42.32 22.68L42.32 22.68L42.32 26.85L44.28 27.45L44.00 28.01L39.40 28.01L39.40 27.58L40.64 26.60L40.64 22.64L39.40 21.91L39.40 21.48L41.79 20.30L42.22 22.02L43.68 20.54L43.68 20.54Q43.97 20.43 44.45 20.43L44.45 20.43L44.45 20.44ZM54.10 27.44L53.82 28L51.16 28L51.16 26.78L49.57 28.03L49.57 28.03Q49.29 28.14 48.87 28.14L48.87 28.14L48.87 28.14Q47.67 28.14 47.13 27.54L47.13 27.54L47.13 27.54Q46.59 26.94 46.59 26.10L46.59 26.10L46.59 26.10Q46.59 25.59 46.96 25.10L46.96 25.10L46.96 25.10Q47.32 24.61 47.99 24.18L47.99 24.18L51.16 24.18L51.16 23.28L51.16 23.28Q51.16 22.37 50.67 21.99L50.67 21.99L50.67 21.99Q50.19 21.62 49.35 21.62L49.35 21.62L49.35 21.62Q48.48 21.62 47.22 22.67L47.22 22.67L46.80 22.13L48.82 20.54L48.82 20.54Q49.38 20.43 50.16 20.43L50.16 20.43L50.16 20.43Q51.44 20.43 52.14 21.05L52.14 21.05L52.14 21.05Q52.84 21.67 52.84 22.86L52.84 22.86L52.84 26.95L54.10 27.44ZM49.32 26.95L49.32 26.95Q50.18 26.95 51.16 26.17L51.16 26.17L51.16 24.75L48.68 24.75L48.68 24.75Q48.50 24.98 48.42 25.20L48.42 25.20L48.42 25.20Q48.34 25.42 48.34 25.69L48.34 25.69L48.34 25.69Q48.34 26.21 48.61 26.58L48.61 26.58L48.61 26.58Q48.87 26.95 49.32 26.95L49.32 26.95ZM64.93 16.87L64.93 16.87Q66.37 16.87 67.49 17.56L67.49 17.56L67.49 17.56Q68.60 18.26 69.21 19.49L69.21 19.49L69.21 19.49Q69.82 20.72 69.82 22.27L69.82 22.27L69.82 22.27Q69.82 23.87 68.89 25.22L68.89 25.22L68.89 25.22Q67.96 26.57 66.58 27.36L66.58 27.36L66.58 27.36Q65.20 28.15 63.94 28.15L63.94 28.15L63.94 28.15Q63.29 28.15 62.64 28.08L62.64 28.08L62.64 28.08Q61.56 28.01 60.97 28.01L60.97 28.01L59.19 28.01L59.19 27.58L60.51 26.54L60.51 18.03L59.05 17.56L59.33 17.00L60.96 17.00L60.96 17.00Q62.29 17.00 63.55 16.91L63.55 16.91L63.55 16.91Q64.50 16.86 64.93 16.86L64.93 16.86L64.93 16.87ZM64.33 27.12L64.33 27.12Q65.34 27.12 66.16 26.58L66.16 26.58L66.16 26.58Q66.99 26.04 67.46 25.08L67.46 25.08L67.46 25.08Q67.93 24.12 67.93 22.93L67.93 22.93L67.93 22.93Q67.93 21.50 67.48 20.34L67.48 20.34L67.48 20.34Q67.03 19.17 66.11 18.47L66.11 18.47L66.11 18.47Q65.20 17.77 63.84 17.77L63.84 17.77L63.84 17.77Q62.99 17.77 62.26 18.27L62.26 18.27L62.26 26.77L62.26 26.77Q63.11 27.12 64.33 27.12L64.33 27.12ZM78.82 26.07L76.34 28.03L76.34 28.03Q75.78 28.14 75.00 28.14L75.00 28.14L75.00 28.14Q74.07 28.14 73.34 27.66L73.34 27.66L73.34 27.66Q72.60 27.17 72.19 26.35L72.19 26.35L72.19 26.35Q71.78 25.52 71.78 24.53L71.78 24.53L71.78 24.53Q71.78 23.45 72.44 22.50L72.44 22.50L72.44 22.50Q73.09 21.56 74.08 20.99L74.08 20.99L74.08 20.99Q75.07 20.43 75.99 20.43L75.99 20.43L75.99 20.43Q77.32 20.43 78.06 21.48L78.06 21.48L78.06 21.48Q78.79 22.53 78.79 24.25L78.79 24.25L73.61 24.25L73.61 24.25Q73.70 25.44 74.26 26.19L74.26 26.19L74.26 26.19Q74.83 26.95 75.81 26.95L75.81 26.95L75.81 26.95Q76.72 26.95 78.40 25.54L78.40 25.54L78.82 26.07ZM75.18 21.60L75.18 21.60Q73.67 21.60 73.60 23.67L73.60 23.67L76.87 23.67L76.87 23.67Q76.75 22.92 76.62 22.52L76.62 22.52L76.62 22.52Q76.48 22.12 76.15 21.86L76.15 21.86L76.15 21.86Q75.82 21.60 75.18 21.60L75.18 21.60ZM87.96 20.57L87.96 21L84.42 28L83.36 28L81.17 22.67L79.87 21.91L79.87 21.48L82.26 20.30L82.80 22.41L84.50 26.59L86.48 22.48L84.62 21.13L84.90 20.57L87.96 20.57ZM96.08 26.07L93.60 28.03L93.60 28.03Q93.04 28.14 92.26 28.14L92.26 28.14L92.26 28.14Q91.34 28.14 90.60 27.66L90.60 27.66L90.60 27.66Q89.87 27.17 89.45 26.35L89.45 26.35L89.45 26.35Q89.04 25.52 89.04 24.53L89.04 24.53L89.04 24.53Q89.04 23.45 89.70 22.50L89.70 22.50L89.70 22.50Q90.36 21.56 91.34 20.99L91.34 20.99L91.34 20.99Q92.33 20.43 93.25 20.43L93.25 20.43L93.25 20.43Q94.58 20.43 95.32 21.48L95.32 21.48L95.32 21.48Q96.05 22.53 96.05 24.25L96.05 24.25L90.87 24.25L90.87 24.25Q90.96 25.44 91.52 26.19L91.52 26.19L91.52 26.19Q92.09 26.95 93.07 26.95L93.07 26.95L93.07 26.95Q93.98 26.95 95.66 25.54L95.66 25.54L96.08 26.07ZM92.44 21.60L92.44 21.60Q90.93 21.60 90.86 23.67L90.86 23.67L94.14 23.67L94.14 23.67Q94.01 22.92 93.88 22.52L93.88 22.52L93.88 22.52Q93.74 22.12 93.41 21.86L93.41 21.86L93.41 21.86Q93.09 21.60 92.44 21.60L92.44 21.60ZM101.74 27.44L101.46 28L97.55 28L97.55 27.57L98.80 26.59L98.80 17.98L97.55 17.11L97.55 16.67L99.95 15.78L100.48 15.78L100.48 26.95L101.74 27.44ZM107.42 20.43L107.42 20.43Q108.35 20.43 109.08 20.91L109.08 20.91L109.08 20.91Q109.82 21.39 110.23 22.22L110.23 22.22L110.23 22.22Q110.64 23.04 110.64 24.04L110.64 24.04L110.64 24.04Q110.64 25.12 109.98 26.06L109.98 26.06L109.98 26.06Q109.33 27.01 108.34 27.57L108.34 27.57L108.34 27.57Q107.35 28.14 106.43 28.14L106.43 28.14L106.43 28.14Q105.50 28.14 104.77 27.66L104.77 27.66L104.77 27.66Q104.03 27.17 103.62 26.35L103.62 26.35L103.62 26.35Q103.21 25.52 103.21 24.53L103.21 24.53L103.21 24.53Q103.21 23.45 103.87 22.50L103.87 22.50L103.87 22.50Q104.52 21.56 105.51 20.99L105.51 20.99L105.51 20.99Q106.50 20.43 107.42 20.43L107.42 20.43ZM106.61 21.60L106.61 21.60Q105.03 21.60 105.03 23.86L105.03 23.86L105.03 23.86Q105.03 25.19 105.60 26.07L105.60 26.07L105.60 26.07Q106.18 26.96 107.24 26.96L107.24 26.96L107.24 26.96Q108.82 26.96 108.82 24.70L108.82 24.70L108.82 24.70Q108.82 23.38 108.25 22.49L108.25 22.49L108.25 22.49Q107.67 21.60 106.61 21.60L106.61 21.60ZM116.72 28.15L116.72 28.15Q115.96 28.15 115.32 27.69L115.32 27.69L115.32 30.41L117.28 31.01L117.00 31.57L112.39 31.57L112.39 31.14L113.64 30.16L113.64 22.64L112.39 21.91L112.39 21.48L114.79 20.30L115.25 22.12L117.25 20.54L117.25 20.54Q117.70 20.43 118.27 20.43L118.27 20.43L118.27 20.43Q119.03 20.43 119.64 20.91L119.64 20.91L119.64 20.91Q120.25 21.39 120.59 22.22L120.59 22.22L120.59 22.22Q120.93 23.04 120.93 24.04L120.93 24.04L120.93 24.04Q120.93 25.12 120.27 26.06L120.27 26.06L120.27 26.06Q119.62 27.01 118.63 27.57L118.63 27.57L118.63 27.57Q117.64 28.14 116.72 28.14L116.72 28.14L116.72 28.15ZM117.56 21.77L117.56 21.77Q117.03 21.77 116.52 21.98L116.52 21.98L116.52 21.98Q116.02 22.19 115.32 22.81L115.32 22.81L115.32 25.17L115.32 25.17Q115.32 25.94 115.89 26.46L115.89 26.46L115.89 26.46Q116.47 26.98 117.53 26.98L117.53 26.98L117.53 26.98Q119.11 26.98 119.11 24.72L119.11 24.72L119.11 24.72Q119.11 23.48 118.71 22.62L118.71 22.62L118.71 22.62Q118.30 21.77 117.56 21.77L117.56 21.77ZM136.12 27.44L135.84 28L133.18 28L133.18 23.28L133.18 23.28Q133.18 22.51 132.94 22.20L132.94 22.20L132.94 22.20Q132.71 21.90 132.09 21.90L132.09 21.90L132.09 21.90Q131.66 21.90 131.24 22.06L131.24 22.06L131.24 22.06Q130.82 22.22 130.24 22.69L130.24 22.69L130.24 26.95L131.50 27.44L131.22 28L128.56 28L128.56 23.28L128.56 23.28Q128.56 22.51 128.32 22.20L128.32 22.20L128.32 22.20Q128.09 21.90 127.47 21.90L127.47 21.90L127.47 21.90Q127.04 21.90 126.62 22.06L126.62 22.06L126.62 22.06Q126.20 22.22 125.62 22.69L125.62 22.69L125.62 26.95L126.88 27.44L126.60 28L122.70 28L122.70 27.57L123.94 26.59L123.94 22.62L122.70 21.90L122.70 21.46L125.09 20.29L125.54 22.08L127.40 20.52L127.40 20.52Q127.69 20.41 128.17 20.41L128.17 20.41L128.17 20.41Q128.98 20.41 129.51 20.85L129.51 20.85L129.51 20.85Q130.05 21.29 130.19 22.06L130.19 22.06L132.01 20.54L132.01 20.54Q132.30 20.43 132.78 20.43L132.78 20.43L132.78 20.43Q133.73 20.43 134.29 21.01L134.29 21.01L134.29 21.01Q134.85 21.59 134.85 22.58L134.85 22.58L134.85 26.95L136.12 27.44ZM144.48 26.07L142.00 28.03L142.00 28.03Q141.44 28.14 140.66 28.14L140.66 28.14L140.66 28.14Q139.73 28.14 139.00 27.66L139.00 27.66L139.00 27.66Q138.26 27.17 137.85 26.35L137.85 26.35L137.85 26.35Q137.44 25.52 137.44 24.53L137.44 24.53L137.44 24.53Q137.44 23.45 138.10 22.50L138.10 22.50L138.10 22.50Q138.75 21.56 139.74 20.99L139.74 20.99L139.74 20.99Q140.73 20.43 141.65 20.43L141.65 20.43L141.65 20.43Q142.98 20.43 143.72 21.48L143.72 21.48L143.72 21.48Q144.45 22.53 144.45 24.25L144.45 24.25L139.27 24.25L139.27 24.25Q139.36 25.44 139.92 26.19L139.92 26.19L139.92 26.19Q140.49 26.95 141.47 26.95L141.47 26.95L141.47 26.95Q142.38 26.95 144.06 25.54L144.06 25.54L144.48 26.07ZM140.84 21.60L140.84 21.60Q139.33 21.60 139.26 23.67L139.26 23.67L142.53 23.67L142.53 23.67Q142.41 22.92 142.28 22.52L142.28 22.52L142.28 22.52Q142.14 22.12 141.81 21.86L141.81 21.86L141.81 21.86Q141.48 21.60 140.84 21.60L140.84 21.60ZM155.18 27.45L154.90 28.01L152.24 28.01L152.24 23.30L152.24 23.30Q152.24 22.53 152.00 22.22L152.00 22.22L152.00 22.22Q151.76 21.91 151.14 21.91L151.14 21.91L151.14 21.91Q150.68 21.91 150.23 22.08L150.23 22.08L150.23 22.08Q149.77 22.25 149.16 22.72L149.16 22.72L149.16 26.96L150.42 27.45L150.14 28.01L146.23 28.01L146.23 27.58L147.48 26.60L147.48 22.64L146.23 21.91L146.23 21.48L148.62 20.30L149.09 22.12L151.07 20.54L151.07 20.54Q151.37 20.43 151.84 20.43L151.84 20.43L151.84 20.43Q152.80 20.43 153.36 21.01L153.36 21.01L153.36 21.01Q153.92 21.59 153.92 22.58L153.92 22.58L153.92 26.95L155.18 27.45ZM161.70 26.91L160.29 28.03L160.29 28.03Q159.96 28.14 159.50 28.14L159.50 28.14L159.50 28.14Q158.34 28.14 157.80 27.53L157.80 27.53L157.80 27.53Q157.26 26.92 157.26 25.65L157.26 25.65L157.26 21.56L155.75 21.56L155.75 20.99L158.41 17.89L158.94 17.89L158.94 20.99L161.46 20.99L161.46 21.56L158.94 21.56L158.94 25.82L158.94 25.82Q158.94 26.95 160.03 26.95L160.03 26.95L160.03 26.95Q160.33 26.95 160.60 26.82L160.60 26.82L160.60 26.82Q160.87 26.70 161.28 26.38L161.28 26.38L161.70 26.91Z"></path></g><defs data-v-fde0c5aa=""><!----></defs><g data-v-fde0c5aa="" id="8c741d1e-a74f-4fad-ba84-96a2428ed9d3" stroke="none" fill="#25BDD6" transform="matrix(0.45754333026797106,0,0,0.45754333026797106,127.12283348660145,95.13274240570556)"><path d="M81.245 38.696c-2.478-.799-5.2-1.489-8.103-2.069.946-2.795 1.725-5.499 2.27-8.037 1.986-9.242.979-15.316-2.911-17.561-.974-.564-2.095-.849-3.331-.849-1.828 0-3.906.645-6.151 1.85a4.745 4.745 0 0 0-2.922-1.019 4.785 4.785 0 0 0-4.786 4.785c0 .59.121 1.149.317 1.672-1.842 1.677-3.728 3.613-5.628 5.777-7.142-8.135-14.111-13.063-19.17-13.063-1.235 0-2.356.284-3.331.848-3.889 2.246-4.896 8.32-2.911 17.561.545 2.538 1.324 5.242 2.27 8.037-2.903.579-5.624 1.269-8.101 2.068C9.756 41.6 5 45.507 5 50c0 3.084 2.242 5.893 6.558 8.289a4.762 4.762 0 0 0-.153 1.146 4.787 4.787 0 0 0 4.789 4.785c1.783 0 3.32-.987 4.143-2.432a76.79 76.79 0 0 0 6.521 1.583c-.946 2.795-1.725 5.499-2.27 8.036-1.984 9.245-.977 15.317 2.913 17.564.975.561 2.094.847 3.329.847 5.06 0 12.028-4.928 19.171-13.064 7.142 8.137 14.11 13.066 19.169 13.066 1.236 0 2.355-.287 3.329-.847 2.963-1.711 4.249-5.646 3.82-11.504a4.78 4.78 0 0 0 2.821-4.354c0-2.537-1.977-4.59-4.471-4.756a79.622 79.622 0 0 0-1.527-4.986c2.904-.58 5.625-1.27 8.103-2.069C90.244 58.401 95 54.493 95 50s-4.756-8.4-13.755-11.304zM57.406 19.755a4.788 4.788 0 0 0 7.48-3.957c0-.481-.092-.935-.224-1.373 1.738-.904 3.266-1.37 4.509-1.37.735 0 1.354.15 1.895.462 2.589 1.497 3.165 6.907 1.539 14.474-.548 2.553-1.344 5.285-2.317 8.115a115.045 115.045 0 0 0-11.506-1.311c-2.262-3.394-4.58-6.525-6.897-9.335 1.901-2.185 3.754-4.088 5.521-5.705zm3.52 36.554a136.112 136.112 0 0 1-3.75 6.116 132.976 132.976 0 0 1-14.352 0 135.55 135.55 0 0 1-3.75-6.116 133.315 133.315 0 0 1-3.413-6.322 133.786 133.786 0 0 1 7.163-12.412 132.873 132.873 0 0 1 14.352 0 133.786 133.786 0 0 1 7.163 12.412 132.413 132.413 0 0 1-3.413 6.322zm4.988-3.109a108.868 108.868 0 0 1 3.384 7.943c-2.672.436-5.533.789-8.561 1.04.905-1.441 1.8-2.919 2.677-4.438.874-1.515 1.7-3.031 2.5-4.545zM55.19 65.388A108.597 108.597 0 0 1 50 72.312a108.314 108.314 0 0 1-5.19-6.924c1.711.065 3.441.101 5.189.101 1.749 0 3.48-.036 5.191-.101zm-15.926-3.206c-3.028-.251-5.89-.603-8.562-1.04a108.895 108.895 0 0 1 3.385-7.943c.8 1.515 1.626 3.031 2.501 4.545a137.496 137.496 0 0 0 2.676 4.438zm-5.17-15.396a110.24 110.24 0 0 1-3.39-7.929c2.672-.436 5.532-.789 8.559-1.039-.905 1.441-1.8 2.919-2.677 4.438-.87 1.509-1.694 3.02-2.492 4.53zM44.81 34.612A108.597 108.597 0 0 1 50 27.688a108.597 108.597 0 0 1 5.19 6.924 136.813 136.813 0 0 0-5.192-.101c-1.747 0-3.477.037-5.188.101zm18.604 7.643a138.605 138.605 0 0 0-2.677-4.438c3.027.251 5.887.603 8.558 1.039a110.218 110.218 0 0 1-3.389 7.929c-.797-1.509-1.62-3.02-2.492-4.53zM27.397 27.99c-1.626-7.567-1.05-12.977 1.539-14.474.54-.312 1.161-.462 1.894-.462 3.791 0 10.195 4.269 17.287 12.404-2.316 2.81-4.634 5.941-6.896 9.335-4.02.261-7.884.704-11.507 1.311-.972-2.829-1.769-5.561-2.317-8.114zm-6.465 30.961c-.245-2.415-2.26-4.306-4.738-4.306a4.749 4.749 0 0 0-3.104 1.17C9.732 53.974 7.872 51.951 7.872 50c0-3.955 7.603-8.207 19.953-10.627A114.877 114.877 0 0 0 32.441 50a114.76 114.76 0 0 0-4.616 10.627 74.203 74.203 0 0 1-6.893-1.676zm9.898 27.995c-.733 0-1.354-.151-1.894-.463-3.424-1.977-3.305-10.685.774-22.589 3.625.608 7.49 1.051 11.512 1.313 2.262 3.394 4.58 6.525 6.896 9.335-7.094 8.135-13.498 12.404-17.288 12.404zm41.037-17.908a4.77 4.77 0 0 0-2.302 4.076 4.783 4.783 0 0 0 3.868 4.694c.307 4.509-.502 7.597-2.37 8.675-.54.312-1.158.463-1.893.463-3.789 0-10.193-4.269-17.286-12.404 2.317-2.81 4.634-5.942 6.897-9.335a115.08 115.08 0 0 0 11.51-1.313 78.246 78.246 0 0 1 1.576 5.144zm.307-8.411A114.861 114.861 0 0 0 67.559 50a114.861 114.861 0 0 0 4.615-10.627C84.525 41.793 92.129 46.045 92.129 50c0 3.955-7.604 8.207-19.955 10.627z"></path><circle cx="50" cy="50" r="6.703"></circle></g><defs data-v-fde0c5aa=""><!----></defs><g data-v-fde0c5aa="" id="8bae4ed6-47eb-414c-a2be-b76af499c8d3" fill="#25BDD6" transform="matrix(0.6665072135165647,0,0,0.6665072135165647,52.03344495848379,179.094518061276)"><path d="M11.68 17.44L10.35 18.48L10.35 28.01L9.58 28.01L2.93 19.60L2.93 26.71L4.40 27.45L4.12 28.01L0.84 28.01L0.84 27.58L2.16 26.54L2.16 18.34L0.70 17.56L0.98 17.00L3.09 17.00L9.58 25.20L9.58 18.28L8.12 17.56L8.40 17.00L11.68 17.00L11.68 17.44ZM20.26 26.07L17.78 28.03L17.78 28.03Q17.22 28.14 16.44 28.14L16.44 28.14L16.44 28.14Q15.51 28.14 14.78 27.66L14.78 27.66L14.78 27.66Q14.04 27.17 13.63 26.35L13.63 26.35L13.63 26.35Q13.22 25.52 13.22 24.53L13.22 24.53L13.22 24.53Q13.22 23.45 13.87 22.50L13.87 22.50L13.87 22.50Q14.53 21.56 15.52 20.99L15.52 20.99L15.52 20.99Q16.51 20.43 17.43 20.43L17.43 20.43L17.43 20.43Q18.76 20.43 19.50 21.48L19.50 21.48L19.50 21.48Q20.23 22.53 20.23 24.25L20.23 24.25L15.05 24.25L15.05 24.25Q15.13 25.44 15.70 26.19L15.70 26.19L15.70 26.19Q16.27 26.95 17.25 26.95L17.25 26.95L17.25 26.95Q18.16 26.95 19.84 25.54L19.84 25.54L20.26 26.07ZM16.62 21.60L16.62 21.60Q15.11 21.60 15.04 23.67L15.04 23.67L18.31 23.67L18.31 23.67Q18.19 22.92 18.05 22.52L18.05 22.52L18.05 22.52Q17.92 22.12 17.59 21.86L17.59 21.86L17.59 21.86Q17.26 21.60 16.62 21.60L16.62 21.60ZM29.40 20.57L29.40 21L25.86 28L24.79 28L22.61 22.67L21.31 21.91L21.31 21.48L23.70 20.30L24.23 22.41L25.94 26.59L27.92 22.48L26.05 21.13L26.33 20.57L29.40 20.57ZM37.52 26.07L35.04 28.03L35.04 28.03Q34.48 28.14 33.70 28.14L33.70 28.14L33.70 28.14Q32.77 28.14 32.04 27.66L32.04 27.66L32.04 27.66Q31.30 27.17 30.89 26.35L30.89 26.35L30.89 26.35Q30.48 25.52 30.48 24.53L30.48 24.53L30.48 24.53Q30.48 23.45 31.14 22.50L31.14 22.50L31.14 22.50Q31.79 21.56 32.78 20.99L32.78 20.99L32.78 20.99Q33.77 20.43 34.69 20.43L34.69 20.43L34.69 20.43Q36.02 20.43 36.76 21.48L36.76 21.48L36.76 21.48Q37.49 22.53 37.49 24.25L37.49 24.25L32.31 24.25L32.31 24.25Q32.40 25.44 32.96 26.19L32.96 26.19L32.96 26.19Q33.53 26.95 34.51 26.95L34.51 26.95L34.51 26.95Q35.42 26.95 37.10 25.54L37.10 25.54L37.52 26.07ZM33.88 21.60L33.88 21.60Q32.37 21.60 32.30 23.67L32.30 23.67L35.57 23.67L35.57 23.67Q35.45 22.92 35.31 22.52L35.31 22.52L35.31 22.52Q35.18 22.12 34.85 21.86L34.85 21.86L34.85 21.86Q34.52 21.60 33.88 21.60L33.88 21.60ZM44.32 20.44L44.32 20.44Q44.79 20.44 45.14 20.69L45.14 20.69L45.14 20.69Q45.49 20.94 45.68 21.39L45.68 21.39L44.76 22.55L44.23 22.55L44.23 22.55Q44.17 22.20 44.02 22.06L44.02 22.06L44.02 22.06Q43.88 21.91 43.62 21.91L43.62 21.91L43.62 21.91Q43.32 21.91 42.97 22.07L42.97 22.07L42.97 22.07Q42.63 22.23 42.20 22.68L42.20 22.68L42.20 26.85L44.16 27.45L43.88 28.01L39.27 28.01L39.27 27.58L40.52 26.60L40.52 22.64L39.27 21.91L39.27 21.48L41.66 20.30L42.10 22.02L43.55 20.54L43.55 20.54Q43.85 20.43 44.32 20.43L44.32 20.43L44.32 20.44ZM54.95 26.49L54.95 26.49Q54.95 26.10 54.52 25.77L54.52 25.77L54.52 25.77Q54.08 25.44 53.19 24.98L53.19 24.98L53.19 24.98Q52.46 24.60 52.01 24.32L52.01 24.32L52.01 24.32Q51.56 24.04 51.25 23.67L51.25 23.67L51.25 23.67Q50.93 23.30 50.93 22.86L50.93 22.86L50.93 22.86Q50.93 22.36 51.35 21.78L51.35 21.78L51.35 21.78Q51.77 21.21 52.39 20.82L52.39 20.82L52.39 20.82Q53.00 20.43 53.54 20.43L53.54 20.43L53.54 20.43Q54.18 20.43 55.03 20.59L55.03 20.59L55.03 20.59Q55.87 20.75 56.25 20.94L56.25 20.94L56.25 23.10L55.72 23.10L55.72 23.10Q55.27 22.23 54.68 21.75L54.68 21.75L54.68 21.75Q54.10 21.27 53.48 21.27L53.48 21.27L53.48 21.27Q53.05 21.27 52.78 21.50L52.78 21.50L52.78 21.50Q52.51 21.73 52.51 22.08L52.51 22.08L52.51 22.08Q52.51 22.51 52.97 22.86L52.97 22.86L52.97 22.86Q53.42 23.20 54.35 23.66L54.35 23.66L54.35 23.66Q55.06 24.02 55.50 24.29L55.50 24.29L55.50 24.29Q55.93 24.56 56.23 24.91L56.23 24.91L56.23 24.91Q56.53 25.27 56.53 25.70L56.53 25.70L56.53 25.70Q56.53 26.22 56.09 26.79L56.09 26.79L56.09 26.79Q55.65 27.36 55.01 27.75L55.01 27.75L55.01 27.75Q54.38 28.14 53.84 28.14L53.84 28.14L53.84 28.14Q53.16 28.14 52.21 27.98L52.21 27.98L52.21 27.98Q51.27 27.82 50.86 27.62L50.86 27.62L50.86 25.47L51.39 25.47L51.39 25.47Q51.88 26.33 52.56 26.82L52.56 26.82L52.56 26.82Q53.23 27.30 53.91 27.30L53.91 27.30L53.91 27.30Q54.38 27.30 54.66 27.06L54.66 27.06L54.66 27.06Q54.95 26.82 54.95 26.49L54.95 26.49ZM63.67 26.91L62.26 28.03L62.26 28.03Q61.94 28.14 61.47 28.14L61.47 28.14L61.47 28.14Q60.31 28.14 59.77 27.53L59.77 27.53L59.77 27.53Q59.23 26.92 59.23 25.65L59.23 25.65L59.23 21.56L57.72 21.56L57.72 20.99L60.38 17.89L60.91 17.89L60.91 20.99L63.43 20.99L63.43 21.56L60.91 21.56L60.91 25.82L60.91 25.82Q60.91 26.95 62.01 26.95L62.01 26.95L62.01 26.95Q62.30 26.95 62.57 26.82L62.57 26.82L62.57 26.82Q62.85 26.70 63.25 26.38L63.25 26.38L63.67 26.91ZM68.94 20.43L68.94 20.43Q69.86 20.43 70.59 20.91L70.59 20.91L70.59 20.91Q71.33 21.39 71.74 22.22L71.74 22.22L71.74 22.22Q72.16 23.04 72.16 24.04L72.16 24.04L72.16 24.04Q72.16 25.12 71.50 26.06L71.50 26.06L71.50 26.06Q70.84 27.01 69.85 27.57L69.85 27.57L69.85 27.57Q68.87 28.14 67.94 28.14L67.94 28.14L67.94 28.14Q67.02 28.14 66.28 27.66L66.28 27.66L66.28 27.66Q65.55 27.17 65.13 26.35L65.13 26.35L65.13 26.35Q64.72 25.52 64.72 24.53L64.72 24.53L64.72 24.53Q64.72 23.45 65.38 22.50L65.38 22.50L65.38 22.50Q66.04 21.56 67.02 20.99L67.02 20.99L67.02 20.99Q68.01 20.43 68.94 20.43L68.94 20.43ZM68.12 21.60L68.12 21.60Q66.54 21.60 66.54 23.86L66.54 23.86L66.54 23.86Q66.54 25.19 67.12 26.07L67.12 26.07L67.12 26.07Q67.69 26.96 68.75 26.96L68.75 26.96L68.75 26.96Q70.34 26.96 70.34 24.70L70.34 24.70L70.34 24.70Q70.34 23.38 69.76 22.49L69.76 22.49L69.76 22.49Q69.19 21.60 68.12 21.60L68.12 21.60ZM78.23 28.15L78.23 28.15Q77.48 28.15 76.83 27.69L76.83 27.69L76.83 30.41L78.79 31.01L78.51 31.57L73.91 31.57L73.91 31.14L75.15 30.16L75.15 22.64L73.91 21.91L73.91 21.48L76.30 20.30L76.76 22.12L78.76 20.54L78.76 20.54Q79.21 20.43 79.79 20.43L79.79 20.43L79.79 20.43Q80.54 20.43 81.15 20.91L81.15 20.91L81.15 20.91Q81.76 21.39 82.10 22.22L82.10 22.22L82.10 22.22Q82.45 23.04 82.45 24.04L82.45 24.04L82.45 24.04Q82.45 25.12 81.79 26.06L81.79 26.06L81.79 26.06Q81.13 27.01 80.14 27.57L80.14 27.57L80.14 27.57Q79.16 28.14 78.23 28.14L78.23 28.14L78.23 28.15ZM79.07 21.77L79.07 21.77Q78.54 21.77 78.04 21.98L78.04 21.98L78.04 21.98Q77.53 22.19 76.83 22.81L76.83 22.81L76.83 25.17L76.83 25.17Q76.83 25.94 77.41 26.46L77.41 26.46L77.41 26.46Q77.98 26.98 79.04 26.98L79.04 26.98L79.04 26.98Q80.63 26.98 80.63 24.72L80.63 24.72L80.63 24.72Q80.63 23.48 80.22 22.62L80.22 22.62L80.22 22.62Q79.81 21.77 79.07 21.77L79.07 21.77ZM95.68 27.44L95.40 28L92.74 28L92.74 26.78L91.15 28.03L91.15 28.03Q90.87 28.14 90.45 28.14L90.45 28.14L90.45 28.14Q89.25 28.14 88.71 27.54L88.71 27.54L88.71 27.54Q88.17 26.94 88.17 26.10L88.17 26.10L88.17 26.10Q88.17 25.59 88.54 25.10L88.54 25.10L88.54 25.10Q88.90 24.61 89.57 24.18L89.57 24.18L92.74 24.18L92.74 23.28L92.74 23.28Q92.74 22.37 92.25 21.99L92.25 21.99L92.25 21.99Q91.77 21.62 90.93 21.62L90.93 21.62L90.93 21.62Q90.06 21.62 88.80 22.67L88.80 22.67L88.38 22.13L90.40 20.54L90.40 20.54Q90.96 20.43 91.74 20.43L91.74 20.43L91.74 20.43Q93.02 20.43 93.72 21.05L93.72 21.05L93.72 21.05Q94.42 21.67 94.42 22.86L94.42 22.86L94.42 26.95L95.68 27.44ZM90.90 26.95L90.90 26.95Q91.76 26.95 92.74 26.17L92.74 26.17L92.74 24.75L90.26 24.75L90.26 24.75Q90.08 24.98 90.00 25.20L90.00 25.20L90.00 25.20Q89.92 25.42 89.92 25.69L89.92 25.69L89.92 25.69Q89.92 26.21 90.19 26.58L90.19 26.58L90.19 26.58Q90.45 26.95 90.90 26.95L90.90 26.95ZM105.53 27.44L105.25 28L102.59 28L102.59 26.99L101.29 28.03L101.29 28.03Q100.84 28.14 100.21 28.14L100.21 28.14L100.21 28.14Q99.29 28.14 98.55 27.66L98.55 27.66L98.55 27.66Q97.82 27.17 97.41 26.35L97.41 26.35L97.41 26.35Q96.99 25.52 96.99 24.53L96.99 24.53L96.99 24.53Q96.99 23.45 97.65 22.50L97.65 22.50L97.65 22.50Q98.31 21.56 99.30 20.99L99.30 20.99L99.30 20.99Q100.28 20.43 101.21 20.43L101.21 20.43L101.21 20.43Q101.98 20.43 102.61 20.86L102.61 20.86L102.61 17.98L101.36 17.11L101.36 16.67L103.75 15.78L104.29 15.78L104.29 26.95L105.53 27.44ZM100.93 26.95L100.93 26.95Q101.35 26.95 101.73 26.83L101.73 26.83L101.73 26.83Q102.12 26.71 102.59 26.38L102.59 26.38L102.59 23.18L102.59 23.18Q102.51 22.48 101.94 22.04L101.94 22.04L101.94 22.04Q101.37 21.60 100.39 21.60L100.39 21.60L100.39 21.60Q98.81 21.60 98.81 23.86L98.81 23.86L98.81 23.86Q98.81 25.17 99.36 26.06L99.36 26.06L99.36 26.06Q99.90 26.95 100.93 26.95L100.93 26.95ZM114.06 20.57L114.06 21L110.52 28L109.45 28L107.27 22.67L105.97 21.91L105.97 21.48L108.36 20.30L108.89 22.41L110.60 26.59L112.57 22.48L110.71 21.13L110.99 20.57L114.06 20.57ZM122.64 27.44L122.36 28L119.70 28L119.70 26.78L118.12 28.03L118.12 28.03Q117.84 28.14 117.42 28.14L117.42 28.14L117.42 28.14Q116.21 28.14 115.68 27.54L115.68 27.54L115.68 27.54Q115.14 26.94 115.14 26.10L115.14 26.10L115.14 26.10Q115.14 25.59 115.50 25.10L115.50 25.10L115.50 25.10Q115.86 24.61 116.54 24.18L116.54 24.18L119.70 24.18L119.70 23.28L119.70 23.28Q119.70 22.37 119.22 21.99L119.22 21.99L119.22 21.99Q118.73 21.62 117.89 21.62L117.89 21.62L117.89 21.62Q117.03 21.62 115.77 22.67L115.77 22.67L115.35 22.13L117.36 20.54L117.36 20.54Q117.92 20.43 118.71 20.43L118.71 20.43L118.71 20.43Q119.98 20.43 120.68 21.05L120.68 21.05L120.68 21.05Q121.38 21.67 121.38 22.86L121.38 22.86L121.38 26.95L122.64 27.44ZM117.87 26.95L117.87 26.95Q118.72 26.95 119.70 26.17L119.70 26.17L119.70 24.75L117.22 24.75L117.22 24.75Q117.04 24.98 116.96 25.20L116.96 25.20L116.96 25.20Q116.89 25.42 116.89 25.69L116.89 25.69L116.89 25.69Q116.89 26.21 117.15 26.58L117.15 26.58L117.15 26.58Q117.42 26.95 117.87 26.95L117.87 26.95ZM132.71 27.45L132.43 28.01L129.77 28.01L129.77 23.30L129.77 23.30Q129.77 22.53 129.53 22.22L129.53 22.22L129.53 22.22Q129.29 21.91 128.67 21.91L128.67 21.91L128.67 21.91Q128.21 21.91 127.76 22.08L127.76 22.08L127.76 22.08Q127.30 22.25 126.69 22.72L126.69 22.72L126.69 26.96L127.95 27.45L127.67 28.01L123.76 28.01L123.76 27.58L125.01 26.60L125.01 22.64L123.76 21.91L123.76 21.48L126.15 20.30L126.62 22.12L128.60 20.54L128.60 20.54Q128.90 20.43 129.37 20.43L129.37 20.43L129.37 20.43Q130.33 20.43 130.89 21.01L130.89 21.01L130.89 21.01Q131.45 21.59 131.45 22.58L131.45 22.58L131.45 26.95L132.71 27.45ZM137.97 20.43L137.97 20.43Q138.54 20.43 139.31 20.59L139.31 20.59L139.31 20.59Q140.07 20.75 140.41 20.94L140.41 20.94L140.41 23.10L139.87 23.10L139.87 23.10Q139.33 22.40 138.62 22.00L138.62 22.00L138.62 22.00Q137.91 21.60 137.16 21.60L137.16 21.60L137.16 21.60Q136.51 21.60 136.19 22.18L136.19 22.18L136.19 22.18Q135.86 22.75 135.86 23.86L135.86 23.86L135.86 23.86Q135.86 25.17 136.43 26.06L136.43 26.06L136.43 26.06Q137.00 26.95 138.07 26.95L138.07 26.95L138.07 26.95Q138.87 26.95 140.34 25.80L140.34 25.80L140.76 26.33L138.60 28.03L138.60 28.03Q138.04 28.14 137.26 28.14L137.26 28.14L137.26 28.14Q136.33 28.14 135.60 27.66L135.60 27.66L135.60 27.66Q134.86 27.17 134.45 26.35L134.45 26.35L134.45 26.35Q134.04 25.52 134.04 24.53L134.04 24.53L134.04 24.53Q134.04 23.45 134.65 22.50L134.65 22.50L134.65 22.50Q135.25 21.55 136.18 20.99L136.18 20.99L136.18 20.99Q137.10 20.43 137.97 20.43L137.97 20.43ZM146.59 27.44L146.31 28L142.41 28L142.41 27.57L143.65 26.59L143.65 22.50L142.41 21.63L142.41 21.20L144.80 20.30L145.33 20.30L145.33 26.95L146.59 27.44ZM144.44 16.10L144.44 16.10Q144.86 16.10 145.13 16.41L145.13 16.41L145.13 16.41Q145.40 16.72 145.40 17.18L145.40 17.18L145.40 17.18Q145.40 17.50 145.21 17.79L145.21 17.79L145.21 17.79Q145.01 18.07 144.72 18.24L144.72 18.24L144.72 18.24Q144.42 18.41 144.14 18.41L144.14 18.41L144.14 18.41Q143.72 18.41 143.45 18.10L143.45 18.10L143.45 18.10Q143.18 17.79 143.18 17.33L143.18 17.33L143.18 17.33Q143.18 17.01 143.37 16.72L143.37 16.72L143.37 16.72Q143.57 16.44 143.86 16.27L143.86 16.27L143.86 16.27Q144.16 16.10 144.44 16.10L144.44 16.10ZM156.80 27.45L156.52 28.01L153.86 28.01L153.86 23.30L153.86 23.30Q153.86 22.53 153.62 22.22L153.62 22.22L153.62 22.22Q153.38 21.91 152.77 21.91L152.77 21.91L152.77 21.91Q152.31 21.91 151.85 22.08L151.85 22.08L151.85 22.08Q151.40 22.25 150.78 22.72L150.78 22.72L150.78 26.96L152.04 27.45L151.76 28.01L147.85 28.01L147.85 27.58L149.10 26.60L149.10 22.64L147.85 21.91L147.85 21.48L150.25 20.30L150.71 22.12L152.70 20.54L152.70 20.54Q152.99 20.43 153.47 20.43L153.47 20.43L153.47 20.43Q154.42 20.43 154.98 21.01L154.98 21.01L154.98 21.01Q155.54 21.59 155.54 22.58L155.54 22.58L155.54 26.95L156.80 27.45ZM165.70 21.53L164.05 21.53L164.05 21.53Q164.44 22.09 164.44 22.79L164.44 22.79L164.44 22.79Q164.44 23.41 164.09 24.00L164.09 24.00L164.09 24.00Q163.74 24.60 163.16 25.05L163.16 25.05L163.16 25.05Q162.57 25.49 161.87 25.72L161.87 25.72L161.87 25.72Q161.49 26.10 161.49 26.52L161.49 26.52L161.49 26.52Q161.49 26.75 161.86 26.96L161.86 26.96L161.86 26.96Q162.23 27.16 162.96 27.44L162.96 27.44L162.96 27.44Q163.95 27.83 164.49 28.16L164.49 28.16L164.49 28.16Q165.03 28.49 165.03 28.97L165.03 28.97L165.03 28.97Q165.03 29.39 164.49 30.04L164.49 30.04L164.49 30.04Q163.95 30.70 163.16 31.19L163.16 31.19L163.16 31.19Q162.36 31.68 161.62 31.68L161.62 31.68L161.62 31.68Q160.83 31.68 159.76 31.42L159.76 31.42L159.76 31.42Q158.69 31.15 157.98 30.88L157.98 30.88L157.98 28.73L158.51 28.73L158.51 28.73Q159.29 29.69 160.10 30.20L160.10 30.20L160.10 30.20Q160.92 30.70 161.94 30.70L161.94 30.70L161.94 30.70Q162.32 30.70 162.63 30.55L162.63 30.55L162.63 30.55Q162.95 30.39 163.12 30.16L163.12 30.16L163.12 30.16Q163.30 29.93 163.30 29.72L163.30 29.72L163.30 29.72Q163.30 29.34 162.86 29.07L162.86 29.07L162.86 29.07Q162.43 28.80 161.50 28.41L161.50 28.41L161.50 28.41Q160.62 28.04 160.19 27.78L160.19 27.78L160.19 27.78Q159.77 27.51 159.77 27.16L159.77 27.16L159.77 27.16Q159.77 26.82 160.22 26.47L160.22 26.47L160.22 26.47Q160.66 26.12 161.28 25.86L161.28 25.86L161.28 25.86Q161.06 25.90 160.82 25.90L160.82 25.90L160.82 25.90Q160.08 25.90 159.46 25.57L159.46 25.57L159.46 25.57Q158.84 25.24 158.49 24.70L158.49 24.70L158.49 24.70Q158.13 24.15 158.13 23.51L158.13 23.51L158.13 23.51Q158.13 22.74 158.66 22.02L158.66 22.02L158.66 22.02Q159.19 21.31 160.04 20.87L160.04 20.87L160.04 20.87Q160.89 20.43 161.77 20.43L161.77 20.43L161.77 20.43Q162.75 20.43 163.49 20.99L163.49 20.99L165.69 20.99L165.70 21.53ZM161.63 24.70L161.63 24.70Q162.26 24.70 162.59 24.38L162.59 24.38L162.59 24.38Q162.92 24.07 162.92 23.45L162.92 23.45L162.92 23.45Q162.92 22.61 162.38 22.09L162.38 22.09L162.38 22.09Q161.84 21.57 160.96 21.57L160.96 21.57L160.96 21.57Q160.34 21.57 160.01 21.88L160.01 21.88L160.01 21.88Q159.68 22.18 159.68 22.79L159.68 22.79L159.68 22.79Q159.68 23.65 160.22 24.17L160.22 24.17L160.22 24.17Q160.76 24.70 161.63 24.70L161.63 24.70ZM174.97 27.44L174.69 28L170.79 28L170.79 27.57L172.03 26.59L172.03 22.50L170.79 21.63L170.79 21.20L173.18 20.30L173.71 20.30L173.71 26.95L174.97 27.44ZM172.82 16.10L172.82 16.10Q173.24 16.10 173.51 16.41L173.51 16.41L173.51 16.41Q173.78 16.72 173.78 17.18L173.78 17.18L173.78 17.18Q173.78 17.50 173.59 17.79L173.59 17.79L173.59 17.79Q173.39 18.07 173.10 18.24L173.10 18.24L173.10 18.24Q172.80 18.41 172.52 18.41L172.52 18.41L172.52 18.41Q172.10 18.41 171.83 18.10L171.83 18.10L171.83 18.10Q171.56 17.79 171.56 17.33L171.56 17.33L171.56 17.33Q171.56 17.01 171.75 16.72L171.75 16.72L171.75 16.72Q171.95 16.44 172.24 16.27L172.24 16.27L172.24 16.27Q172.54 16.10 172.82 16.10L172.82 16.10ZM185.18 27.45L184.90 28.01L182.24 28.01L182.24 23.30L182.24 23.30Q182.24 22.53 182.00 22.22L182.00 22.22L182.00 22.22Q181.76 21.91 181.15 21.91L181.15 21.91L181.15 21.91Q180.68 21.91 180.23 22.08L180.23 22.08L180.23 22.08Q179.77 22.25 179.16 22.72L179.16 22.72L179.16 26.96L180.42 27.45L180.14 28.01L176.23 28.01L176.23 27.58L177.48 26.60L177.48 22.64L176.23 21.91L176.23 21.48L178.63 20.30L179.09 22.12L181.08 20.54L181.08 20.54Q181.37 20.43 181.85 20.43L181.85 20.43L181.85 20.43Q182.80 20.43 183.36 21.01L183.36 21.01L183.36 21.01Q183.92 21.59 183.92 22.58L183.92 22.58L183.92 26.95L185.18 27.45ZM203.64 27.44L203.36 28L200.70 28L200.70 23.28L200.70 23.28Q200.70 22.51 200.47 22.20L200.47 22.20L200.47 22.20Q200.23 21.90 199.61 21.90L199.61 21.90L199.61 21.90Q199.18 21.90 198.76 22.06L198.76 22.06L198.76 22.06Q198.34 22.22 197.76 22.69L197.76 22.69L197.76 26.95L199.02 27.44L198.74 28L196.08 28L196.08 23.28L196.08 23.28Q196.08 22.51 195.85 22.20L195.85 22.20L195.85 22.20Q195.61 21.90 194.99 21.90L194.99 21.90L194.99 21.90Q194.56 21.90 194.14 22.06L194.14 22.06L194.14 22.06Q193.72 22.22 193.14 22.69L193.14 22.69L193.14 26.95L194.40 27.44L194.12 28L190.22 28L190.22 27.57L191.46 26.59L191.46 22.62L190.22 21.90L190.22 21.46L192.61 20.29L193.06 22.08L194.92 20.52L194.92 20.52Q195.22 20.41 195.69 20.41L195.69 20.41L195.69 20.41Q196.50 20.41 197.04 20.85L197.04 20.85L197.04 20.85Q197.57 21.29 197.71 22.06L197.71 22.06L199.53 20.54L199.53 20.54Q199.82 20.43 200.30 20.43L200.30 20.43L200.30 20.43Q201.25 20.43 201.81 21.01L201.81 21.01L201.81 21.01Q202.37 21.59 202.37 22.58L202.37 22.58L202.37 26.95L203.64 27.44ZM208.94 27.44L208.66 28L204.75 28L204.75 27.57L206.00 26.59L206.00 22.50L204.75 21.63L204.75 21.20L207.14 20.30L207.68 20.30L207.68 26.95L208.94 27.44ZM206.78 16.10L206.78 16.10Q207.20 16.10 207.47 16.41L207.47 16.41L207.47 16.41Q207.75 16.72 207.75 17.18L207.75 17.18L207.75 17.18Q207.75 17.50 207.55 17.79L207.55 17.79L207.55 17.79Q207.35 18.07 207.06 18.24L207.06 18.24L207.06 18.24Q206.77 18.41 206.49 18.41L206.49 18.41L206.49 18.41Q206.07 18.41 205.79 18.10L205.79 18.10L205.79 18.10Q205.52 17.79 205.52 17.33L205.52 17.33L205.52 17.33Q205.52 17.01 205.72 16.72L205.72 16.72L205.72 16.72Q205.91 16.44 206.21 16.27L206.21 16.27L206.21 16.27Q206.50 16.10 206.78 16.10L206.78 16.10ZM219.14 27.45L218.86 28.01L216.20 28.01L216.20 23.30L216.20 23.30Q216.20 22.53 215.96 22.22L215.96 22.22L215.96 22.22Q215.73 21.91 215.11 21.91L215.11 21.91L215.11 21.91Q214.65 21.91 214.19 22.08L214.19 22.08L214.19 22.08Q213.74 22.25 213.12 22.72L213.12 22.72L213.12 26.96L214.38 27.45L214.10 28.01L210.20 28.01L210.20 27.58L211.44 26.60L211.44 22.64L210.20 21.91L210.20 21.48L212.59 20.30L213.05 22.12L215.04 20.54L215.04 20.54Q215.33 20.43 215.81 20.43L215.81 20.43L215.81 20.43Q216.76 20.43 217.32 21.01L217.32 21.01L217.32 21.01Q217.88 21.59 217.88 22.58L217.88 22.58L217.88 26.95L219.14 27.45ZM229.00 27.44L228.72 28L226.06 28L226.06 26.99L224.76 28.03L224.76 28.03Q224.31 28.14 223.68 28.14L223.68 28.14L223.68 28.14Q222.75 28.14 222.02 27.66L222.02 27.66L222.02 27.66Q221.28 27.17 220.87 26.35L220.87 26.35L220.87 26.35Q220.46 25.52 220.46 24.53L220.46 24.53L220.46 24.53Q220.46 23.45 221.12 22.50L221.12 22.50L221.12 22.50Q221.77 21.56 222.76 20.99L222.76 20.99L222.76 20.99Q223.75 20.43 224.67 20.43L224.67 20.43L224.67 20.43Q225.44 20.43 226.07 20.86L226.07 20.86L226.07 17.98L224.83 17.11L224.83 16.67L227.22 15.78L227.75 15.78L227.75 26.95L229.00 27.44ZM224.39 26.95L224.39 26.95Q224.81 26.95 225.20 26.83L225.20 26.83L225.20 26.83Q225.58 26.71 226.06 26.38L226.06 26.38L226.06 23.18L226.06 23.18Q225.97 22.48 225.41 22.04L225.41 22.04L225.41 22.04Q224.84 21.60 223.86 21.60L223.86 21.60L223.86 21.60Q222.28 21.60 222.28 23.86L222.28 23.86L222.28 23.86Q222.28 25.17 222.82 26.06L222.82 26.06L222.82 26.06Q223.37 26.95 224.39 26.95L224.39 26.95ZM242.77 27.44L242.49 28L239.83 28L239.83 26.99L238.53 28.03L238.53 28.03Q238.08 28.14 237.45 28.14L237.45 28.14L237.45 28.14Q236.53 28.14 235.80 27.66L235.80 27.66L235.80 27.66Q235.06 27.17 234.65 26.35L234.65 26.35L234.65 26.35Q234.23 25.52 234.23 24.53L234.23 24.53L234.23 24.53Q234.23 23.45 234.89 22.50L234.89 22.50L234.89 22.50Q235.55 21.56 236.54 20.99L236.54 20.99L236.54 20.99Q237.52 20.43 238.45 20.43L238.45 20.43L238.45 20.43Q239.22 20.43 239.85 20.86L239.85 20.86L239.85 17.98L238.60 17.11L238.60 16.67L241.00 15.78L241.53 15.78L241.53 26.95L242.77 27.44ZM238.17 26.95L238.17 26.95Q238.59 26.95 238.97 26.83L238.97 26.83L238.97 26.83Q239.36 26.71 239.83 26.38L239.83 26.38L239.83 23.18L239.83 23.18Q239.75 22.48 239.18 22.04L239.18 22.04L239.18 22.04Q238.62 21.60 237.64 21.60L237.64 21.60L237.64 21.60Q236.05 21.60 236.05 23.86L236.05 23.86L236.05 23.86Q236.05 25.17 236.60 26.06L236.60 26.06L236.60 26.06Q237.15 26.95 238.17 26.95L238.17 26.95ZM251.16 26.07L248.68 28.03L248.68 28.03Q248.12 28.14 247.34 28.14L247.34 28.14L247.34 28.14Q246.41 28.14 245.68 27.66L245.68 27.66L245.68 27.66Q244.94 27.17 244.53 26.35L244.53 26.35L244.53 26.35Q244.12 25.52 244.12 24.53L244.12 24.53L244.12 24.53Q244.12 23.45 244.78 22.50L244.78 22.50L244.78 22.50Q245.43 21.56 246.42 20.99L246.42 20.99L246.42 20.99Q247.41 20.43 248.33 20.43L248.33 20.43L248.33 20.43Q249.66 20.43 250.40 21.48L250.40 21.48L250.40 21.48Q251.13 22.53 251.13 24.25L251.13 24.25L245.95 24.25L245.95 24.25Q246.04 25.44 246.60 26.19L246.60 26.19L246.60 26.19Q247.17 26.95 248.15 26.95L248.15 26.95L248.15 26.95Q249.06 26.95 250.74 25.54L250.74 25.54L251.16 26.07ZM247.52 21.60L247.52 21.60Q246.01 21.60 245.94 23.67L245.94 23.67L249.21 23.67L249.21 23.67Q249.09 22.92 248.96 22.52L248.96 22.52L248.96 22.52Q248.82 22.12 248.49 21.86L248.49 21.86L248.49 21.86Q248.16 21.60 247.52 21.60L247.52 21.60ZM260.30 20.57L260.30 21L256.76 28L255.70 28L253.51 22.67L252.21 21.91L252.21 21.48L254.60 20.30L255.14 22.41L256.84 26.59L258.82 22.48L256.96 21.13L257.24 20.57L260.30 20.57ZM268.42 26.07L265.94 28.03L265.94 28.03Q265.38 28.14 264.60 28.14L264.60 28.14L264.60 28.14Q263.68 28.14 262.94 27.66L262.94 27.66L262.94 27.66Q262.21 27.17 261.79 26.35L261.79 26.35L261.79 26.35Q261.38 25.52 261.38 24.53L261.38 24.53L261.38 24.53Q261.38 23.45 262.04 22.50L262.04 22.50L262.04 22.50Q262.70 21.56 263.68 20.99L263.68 20.99L263.68 20.99Q264.67 20.43 265.59 20.43L265.59 20.43L265.59 20.43Q266.92 20.43 267.66 21.48L267.66 21.48L267.66 21.48Q268.39 22.53 268.39 24.25L268.39 24.25L263.21 24.25L263.21 24.25Q263.30 25.44 263.87 26.19L263.87 26.19L263.87 26.19Q264.43 26.95 265.41 26.95L265.41 26.95L265.41 26.95Q266.32 26.95 268.00 25.54L268.00 25.54L268.42 26.07ZM264.78 21.60L264.78 21.60Q263.27 21.60 263.20 23.67L263.20 23.67L266.48 23.67L266.48 23.67Q266.35 22.92 266.22 22.52L266.22 22.52L266.22 22.52Q266.08 22.12 265.76 21.86L265.76 21.86L265.76 21.86Q265.43 21.60 264.78 21.60L264.78 21.60ZM274.08 27.44L273.80 28L269.89 28L269.89 27.57L271.14 26.59L271.14 17.98L269.89 17.11L269.89 16.67L272.29 15.78L272.82 15.78L272.82 26.95L274.08 27.44ZM279.76 20.43L279.76 20.43Q280.69 20.43 281.42 20.91L281.42 20.91L281.42 20.91Q282.16 21.39 282.57 22.22L282.57 22.22L282.57 22.22Q282.98 23.04 282.98 24.04L282.98 24.04L282.98 24.04Q282.98 25.12 282.32 26.06L282.32 26.06L282.32 26.06Q281.67 27.01 280.68 27.57L280.68 27.57L280.68 27.57Q279.69 28.14 278.77 28.14L278.77 28.14L278.77 28.14Q277.84 28.14 277.11 27.66L277.11 27.66L277.11 27.66Q276.37 27.17 275.96 26.35L275.96 26.35L275.96 26.35Q275.55 25.52 275.55 24.53L275.55 24.53L275.55 24.53Q275.55 23.45 276.21 22.50L276.21 22.50L276.21 22.50Q276.86 21.56 277.85 20.99L277.85 20.99L277.85 20.99Q278.84 20.43 279.76 20.43L279.76 20.43ZM278.95 21.60L278.95 21.60Q277.37 21.60 277.37 23.86L277.37 23.86L277.37 23.86Q277.37 25.19 277.94 26.07L277.94 26.07L277.94 26.07Q278.52 26.96 279.58 26.96L279.58 26.96L279.58 26.96Q281.16 26.96 281.16 24.70L281.16 24.70L281.16 24.70Q281.16 23.38 280.59 22.49L280.59 22.49L280.59 22.49Q280.01 21.60 278.95 21.60L278.95 21.60ZM289.06 28.15L289.06 28.15Q288.30 28.15 287.66 27.69L287.66 27.69L287.66 30.41L289.62 31.01L289.34 31.57L284.73 31.57L284.73 31.14L285.98 30.16L285.98 22.64L284.73 21.91L284.73 21.48L287.13 20.30L287.59 22.12L289.59 20.54L289.59 20.54Q290.04 20.43 290.61 20.43L290.61 20.43L290.61 20.43Q291.37 20.43 291.98 20.91L291.98 20.91L291.98 20.91Q292.59 21.39 292.93 22.22L292.93 22.22L292.93 22.22Q293.27 23.04 293.27 24.04L293.27 24.04L293.27 24.04Q293.27 25.12 292.61 26.06L292.61 26.06L292.61 26.06Q291.96 27.01 290.97 27.57L290.97 27.57L290.97 27.57Q289.98 28.14 289.06 28.14L289.06 28.14L289.06 28.15ZM289.90 21.77L289.90 21.77Q289.37 21.77 288.86 21.98L288.86 21.98L288.86 21.98Q288.36 22.19 287.66 22.81L287.66 22.81L287.66 25.17L287.66 25.17Q287.66 25.94 288.23 26.46L288.23 26.46L288.23 26.46Q288.81 26.98 289.87 26.98L289.87 26.98L289.87 26.98Q291.45 26.98 291.45 24.72L291.45 24.72L291.45 24.72Q291.45 23.48 291.05 22.62L291.05 22.62L291.05 22.62Q290.64 21.77 289.90 21.77L289.90 21.77Z"></path></g></svg>